<svg width="64" height="76" viewBox="0 0 64 76" fill="none" xmlns="http://www.w3.org/2000/svg">
<path d="M64 32C64 49.6719 49.6745 64 32 64C14.3255 64 0 49.6719 0 32C0 14.3281 14.3255 0 32 0C49.6745 0 64 14.3255 64 32Z" fill="#5CB030"/>
<path d="M42.0182 54.0677L42.4583 75.5156M21.4505 54.5078L21.8906 75.9557" stroke="black" stroke-miterlimit="10"/>
<path d="M26.9609 18.6198C26.9661 19.4922 26.263 20.2057 25.3906 20.2109C24.5182 20.2161 23.8047 19.513 23.7995 18.6406C23.7943 17.7682 24.4974 17.0547 25.3698 17.0495C26.2422 17.0443 26.9557 17.7474 26.9609 18.6198Z" fill="black"/>
<path d="M39.1354 18.5391C39.1406 19.4115 38.4375 20.125 37.5651 20.1302C36.6927 20.1354 35.9791 19.4323 35.9739 18.5599C35.9687 17.6875 36.6719 16.974 37.5442 16.9688C38.4166 16.9636 39.1302 17.6667 39.1354 18.5391Z" fill="black"/>
<path d="M39.8724 25.2656C36.013 25.2656 32.875 22.1276 32.875 18.2682C32.875 14.4089 36.0156 11.2708 39.8724 11.2708C43.7292 11.2708 46.8698 14.4089 46.8698 18.2682C46.8698 22.1276 43.7318 25.2656 39.8724 25.2656ZM23.7188 25.5C19.8594 25.5 16.7214 22.3594 16.7214 18.5026C16.7214 14.6458 19.862 11.5052 23.7188 11.5052C27.5755 11.5052 30.7161 14.6432 30.7161 18.5026C30.7161 22.362 27.5755 25.5 23.7188 25.5ZM50.4974 11.2865L50.0833 10.9688L46.7682 15.2786C45.6094 12.6172 42.9557 10.75 39.8724 10.75C36.1563 10.75 33.0625 13.4609 32.4609 17.0104L31.1146 17.1615C30.4792 13.6536 27.4063 10.9844 23.7188 10.9844C20.0313 10.9844 16.9141 13.6901 16.3099 17.2344L8.55208 12.3125L8.27344 12.7526L16.2344 17.8047C16.2135 18.0339 16.2005 18.2682 16.2005 18.5026C16.2005 22.6484 19.5729 26.0208 23.7188 26.0208C27.8646 26.0208 31.237 22.6484 31.237 18.5026C31.237 18.224 31.2214 17.9479 31.1901 17.6771L32.3906 17.5417C32.3672 17.7812 32.3542 18.0234 32.3542 18.2682C32.3542 22.4141 35.7266 25.7865 39.8724 25.7865C44.0182 25.7865 47.3906 22.4141 47.3906 18.2682C47.3906 17.4219 47.2474 16.6068 46.987 15.8464L50.4948 11.2865H50.4974Z" fill="white"/>
<path d="M50.0573 50.3333L49.8125 49.8802C58.6797 45.1068 56.4922 29 56.4687 28.8385L56.9792 28.7656C56.9844 28.8073 57.5625 32.9505 57.0104 37.6406C56.2734 43.8932 53.8672 48.2813 50.0573 50.3333Z" fill="black"/>
<path d="M49.7943 52.9609L49.2812 52.9062C49.388 51.9219 49.5312 51.0443 49.6849 50.1562L50.1927 50.2422C50.0417 51.1198 49.8984 51.9896 49.7943 52.9609Z" fill="black"/>
<path d="M47.8906 52.2943L47.5443 51.9141C47.8776 51.612 48.2083 51.3021 48.5417 50.9948C48.9453 50.6198 49.3516 50.2422 49.7656 49.8698L50.112 50.2526C49.7005 50.625 49.2969 51 48.8932 51.375C48.5599 51.6849 48.2266 51.9948 47.8932 52.2969" fill="black"/>
<path d="M46.8464 50.4505L46.7891 49.9375C47.2969 49.8802 47.8906 49.849 48.4635 49.8177C49.0234 49.7891 49.6016 49.7552 50.0833 49.7031L50.1406 50.2161C49.6432 50.2708 49.0573 50.3021 48.4922 50.3333C47.9271 50.3646 47.3411 50.3958 46.8464 50.4505Z" fill="black"/>
<path d="M14.8229 50.3776L15.0677 49.9245C6.20052 45.151 8.38801 29.0443 8.41145 28.8828L7.90104 28.8099C7.89583 28.8515 7.3177 32.9948 7.86979 37.6849C8.60676 43.9375 11.013 48.3255 14.8229 50.3776Z" fill="black"/>
<path d="M15.0859 53.0052L15.599 52.9505C15.4922 51.9661 15.349 51.0885 15.1953 50.2005L14.6875 50.2864C14.8385 51.164 14.9818 52.0338 15.0859 53.0052Z" fill="black"/>
<path d="M16.9922 52.336L17.3385 51.9558C17.0052 51.6537 16.6745 51.3438 16.3411 51.0365C15.9375 50.6615 15.5312 50.2839 15.1172 49.9115L14.7708 50.2943C15.1823 50.6667 15.5859 51.0417 15.9896 51.4167C16.3229 51.7266 16.6562 52.0365 16.9896 52.3386" fill="black"/>
<path d="M18.0338 50.4948L18.0911 49.9817C17.5833 49.9245 16.9896 49.8932 16.4166 49.862C15.8568 49.8333 15.2786 49.7995 14.7969 49.7474L14.7396 50.2604C15.237 50.3151 15.8229 50.3463 16.388 50.3776C16.9531 50.4088 17.539 50.4401 18.0338 50.4948Z" fill="black"/>
<path d="M30.6406 24.2344C31.4193 25.0833 32.3568 25.1406 33.375 24.7813" stroke="#1D1D1B" stroke-linecap="round" stroke-linejoin="round"/>
</svg>
