<svg width="34" height="26" viewBox="0 0 34 26" fill="none" xmlns="http://www.w3.org/2000/svg">
<path d="M7.35919 14.0868C6.02647 14.0868 4.77394 13.568 3.83166 12.6258L1.87193 10.666C-0.0732753 8.72081 -0.0732753 5.55567 1.87193 3.61046L3.83166 1.65073C4.77394 0.708451 6.02697 0.189697 7.35919 0.189697C8.69141 0.189697 9.94443 0.708451 10.8867 1.65073L18.2049 8.96891C17.8626 8.91027 17.5127 8.8802 17.1579 8.8802C15.5289 8.8802 13.9977 9.51423 12.8464 10.666L10.8867 12.6258C9.94443 13.568 8.69141 14.0868 7.35919 14.0868Z" fill="#518DE0"/>
<path d="M26.9575 14.0868C25.6248 14.0868 24.3723 13.568 23.43 12.6258L17.9427 7.138L23.43 1.65024C24.3723 0.707963 25.6253 0.189209 26.9575 0.189209C28.2898 0.189209 29.5433 0.707963 30.4856 1.65024L32.4453 3.60998C33.3876 4.55225 33.9063 5.80528 33.9063 7.1375C33.9063 8.46972 33.3871 9.72275 32.4453 10.665L30.4856 12.6248C29.5433 13.567 28.2903 14.0858 26.9575 14.0858V14.0868Z" fill="#2E4C9A"/>
<path d="M17.1584 25.6076C16.9363 25.6076 16.7273 25.5209 16.5704 25.3641L11.6706 20.4642C10.7283 19.5219 10.2096 18.2689 10.2096 16.9367C10.2096 15.6045 10.7288 14.3514 11.6706 13.4092L13.6303 11.4494C14.5726 10.5072 15.8256 9.9884 17.1579 9.9884C18.4901 9.9884 19.7431 10.5072 20.6854 11.4494L22.6451 13.4092C23.7969 14.561 25.3281 15.195 26.9565 15.195C27.3109 15.195 27.6607 15.1649 28.0036 15.1063L17.7458 25.3646C17.5889 25.5214 17.3799 25.6082 17.1579 25.6082L17.1584 25.6076Z" fill="#A0C9F0"/>
</svg>
