<svg width="97" height="34" viewBox="0 0 97 34" fill="none" xmlns="http://www.w3.org/2000/svg">
<path d="M9.66637 26.5723C7.92015 26.5723 6.34935 26.1783 4.95448 25.3899C3.55961 24.602 2.45594 23.5159 1.64347 22.1336C0.830509 20.7512 0.42453 19.199 0.42453 17.4763C0.42453 15.7536 0.824996 14.2079 1.62543 12.8371C2.42586 11.4668 3.51099 10.3812 4.8818 9.58072C6.25211 8.78029 7.77429 8.37982 9.44784 8.37982C11.1214 8.37982 12.5097 8.75623 13.7593 9.50755C15.0083 10.2599 15.9906 11.2904 16.7064 12.6C17.4216 13.9097 17.78 15.4018 17.78 17.0753C17.78 17.3665 17.7619 17.6638 17.7253 17.967C17.6887 18.2707 17.6346 18.6035 17.5614 18.9674H3.2258V15.693H15.4874L13.9958 17.0027C13.9467 15.9356 13.7412 15.0379 13.3773 14.3102C13.0135 13.5824 12.4977 13.0245 11.8311 12.6366C11.1635 12.2487 10.345 12.0547 9.37516 12.0547C8.3562 12.0547 7.47056 12.2732 6.71924 12.7098C5.96692 13.1463 5.38502 13.7593 4.97302 14.5472C4.56053 15.3356 4.35453 16.2754 4.35453 17.367C4.35453 18.4587 4.57305 19.417 5.00961 20.2415C5.44617 21.0665 6.06466 21.703 6.8651 22.1516C7.66553 22.6007 8.58725 22.8247 9.63027 22.8247C10.5274 22.8247 11.3585 22.6674 12.1228 22.3516C12.8866 22.0368 13.5357 21.5757 14.0695 20.9687L16.6167 23.552C15.7671 24.5469 14.7366 25.2982 13.5242 25.8079C12.3108 26.3172 11.0257 26.5723 9.66737 26.5723H9.66637Z" fill="#2E4C9A"/>
<path d="M28.2949 26.5723C26.7181 26.5723 25.2931 26.1718 24.0196 25.3714C22.746 24.571 21.739 23.4858 20.9998 22.115C20.2595 20.7447 19.8901 19.2105 19.8901 17.5124C19.8901 15.8143 20.2595 14.244 20.9998 12.8732C21.7395 11.5029 22.746 10.4117 24.0196 9.59877C25.2931 8.7863 26.7176 8.37982 28.2949 8.37982C29.6286 8.37982 30.811 8.66501 31.8425 9.23489C32.873 9.80527 33.6919 10.5872 34.2984 11.5816C34.9044 12.5765 35.2081 13.7042 35.2081 14.9652V19.9864C35.2081 21.2479 34.9109 22.3756 34.3164 23.37C33.722 24.365 32.903 25.1473 31.8605 25.7167C30.8175 26.2866 29.6286 26.5718 28.2949 26.5718V26.5723ZM28.95 22.7881C29.9444 22.7881 30.8115 22.5641 31.5513 22.115C32.291 21.6664 32.8669 21.0414 33.2794 20.241C33.6914 19.4406 33.8979 18.5188 33.8979 17.4758C33.8979 16.4328 33.6914 15.5111 33.2794 14.7106C32.8669 13.9102 32.2905 13.2862 31.5513 12.8366C30.811 12.388 29.9439 12.1635 28.95 12.1635C27.9561 12.1635 27.1246 12.388 26.3848 12.8366C25.6445 13.2857 25.0626 13.9102 24.6386 14.7106C24.214 15.5111 24.002 16.4333 24.002 17.4758C24.002 18.5183 24.214 19.4406 24.6386 20.241C25.0626 21.0414 25.645 21.6664 26.3848 22.115C27.1246 22.5641 27.9796 22.7881 28.95 22.7881ZM37.646 26.2084H33.6438V21.5146L34.335 17.2578L33.6438 13.0371V0.0115967H37.646V26.2084Z" fill="#2E4C9A"/>
<path d="M49.1794 25.8445C47.6266 25.8445 46.2257 25.4626 44.9767 24.6983C43.7272 23.9339 42.7448 22.8854 42.0296 21.5512C41.3139 20.2174 40.956 18.7258 40.956 17.0758C40.956 15.4259 41.3134 13.9468 42.0296 12.6371C42.7448 11.3274 43.7272 10.2904 44.9767 9.52609C46.2257 8.76225 47.6266 8.37982 49.1794 8.37982C50.5617 8.37982 51.7746 8.659 52.8177 9.21684C53.8602 9.77519 54.6732 10.5451 55.2556 11.5274C55.838 12.5098 56.1287 13.6561 56.1287 14.9657V19.2591C56.1287 20.5452 55.8314 21.685 55.237 22.6794C54.6421 23.6743 53.8236 24.4502 52.7811 25.008C51.7381 25.5664 50.5372 25.845 49.1789 25.845L49.1794 25.8445ZM49.3613 33.8494C47.5179 33.8494 45.905 33.5156 44.5221 32.849C43.1393 32.1813 42.0236 31.2416 41.1745 30.0291L43.7944 27.4093C44.4976 28.2824 45.298 28.9375 46.1957 29.3741C47.0928 29.8106 48.1724 30.0291 49.434 30.0291C51.0108 30.0291 52.2598 29.6227 53.1815 28.8102C54.1033 27.9972 54.5644 26.8876 54.5644 25.4812V21.1878L55.2556 17.331L54.5644 13.438V8.7442H58.5666V25.4812C58.5666 27.1547 58.1781 28.6157 57.4022 29.8652C56.6259 31.1143 55.5468 32.0906 54.1639 32.7943C52.7811 33.4975 51.1802 33.8494 49.3613 33.8494ZM49.9798 22.0609C50.9496 22.0609 51.7992 21.8549 52.5265 21.4424C53.2542 21.0304 53.8181 20.4545 54.2185 19.7142C54.619 18.9744 54.819 18.1078 54.819 17.1129C54.819 16.118 54.619 15.2514 54.2185 14.5116C53.8186 13.7719 53.2542 13.196 52.5265 12.7835C51.7987 12.3715 50.9496 12.165 49.9798 12.165C49.01 12.165 48.1544 12.3715 47.4146 12.7835C46.6743 13.196 46.0984 13.7719 45.6864 14.5116C45.2739 15.2519 45.0679 16.119 45.0679 17.1129C45.0679 18.1068 45.2739 18.9449 45.6864 19.6962C46.0984 20.4485 46.6743 21.0304 47.4146 21.4424C48.1544 21.8549 49.0095 22.0609 49.9798 22.0609Z" fill="#2E4C9A"/>
<path d="M70.3184 26.5723C68.7416 26.5723 67.3167 26.1718 66.0431 25.3714C64.7695 24.571 63.7626 23.4858 63.0233 22.115C62.283 20.7447 61.9136 19.2105 61.9136 17.5124C61.9136 15.8143 62.283 14.244 63.0233 12.8732C63.7631 11.5029 64.7695 10.4117 66.0431 9.59877C67.3167 8.7863 68.7411 8.37982 70.3184 8.37982C71.6522 8.37982 72.8345 8.66501 73.866 9.23489C74.8965 9.80527 75.7155 10.5872 76.322 11.5816C76.9279 12.5765 77.2317 13.7042 77.2317 14.9652V19.9864C77.2317 21.2479 76.9344 22.3756 76.34 23.37C75.7456 24.365 74.9266 25.1473 73.8841 25.7167C72.841 26.2866 71.6522 26.5718 70.3184 26.5718V26.5723ZM70.9735 22.7881C72.4526 22.7881 73.648 22.2914 74.5572 21.2965C75.4669 20.3021 75.9215 19.0286 75.9215 17.4763C75.9215 16.4338 75.715 15.5116 75.303 14.7111C74.89 13.9107 74.3141 13.2867 73.5748 12.8371C72.8345 12.3885 71.9674 12.164 70.9735 12.164C69.9796 12.164 69.1481 12.3885 68.4083 12.8371C67.668 13.2862 67.0861 13.9107 66.6621 14.7111C66.2376 15.5116 66.0256 16.4338 66.0256 17.4763C66.0256 18.5188 66.2376 19.4411 66.6621 20.2415C67.0861 21.0419 67.6685 21.6669 68.4083 22.1155C69.1481 22.5646 70.0032 22.7886 70.9735 22.7886V22.7881ZM75.6669 26.2084V21.5146L76.358 17.2578L75.6669 13.0371V8.7437H79.669V26.2084H75.6669Z" fill="#2E4C9A"/>
<path d="M84.1078 26.2084V8.7437H88.11V26.2084H84.1078ZM88.11 16.4939L86.7271 15.8028C86.7271 13.5959 87.2183 11.8066 88.2007 10.4358C89.183 9.06548 90.6686 8.37982 92.658 8.37982C93.5311 8.37982 94.319 8.5377 95.0232 8.85297C95.7264 9.16873 96.3814 9.67796 96.9879 10.3812L94.3681 13.0737C94.0528 12.7343 93.7005 12.4918 93.313 12.3459C92.9246 12.2006 92.476 12.1274 91.9668 12.1274C90.8506 12.1274 89.9294 12.4792 89.2016 13.1824C88.4738 13.8861 88.11 14.9898 88.11 16.4934V16.4939Z" fill="#2E4C9A"/>
</svg>
