<svg width="150" height="44" viewBox="0 0 150 44" fill="none" xmlns="http://www.w3.org/2000/svg">
<path d="M57.6664 31.7755C55.9202 31.7755 54.3494 31.3815 52.9545 30.5931C51.5596 29.8052 50.456 28.7191 49.6435 27.3367C48.8305 25.9544 48.4246 24.4022 48.4246 22.6795C48.4246 20.9568 48.825 19.4111 49.6255 18.0403C50.4259 16.67 51.511 15.5843 52.8818 14.7839C54.2521 13.9835 55.7743 13.583 57.4479 13.583C59.1214 13.583 60.5098 13.9594 61.7593 14.7107C63.0083 15.4631 63.9907 16.4935 64.7064 17.8032C65.4216 19.1129 65.78 20.605 65.78 22.2785C65.78 22.5697 65.762 22.8669 65.7254 23.1702C65.6888 23.4739 65.6347 23.8067 65.5615 24.1706H51.2258V20.8962H63.4875L61.9959 22.2058C61.9467 21.1388 61.7412 20.2411 61.3774 19.5133C61.0135 18.7856 60.4977 18.2277 59.8311 17.8398C59.1635 17.4519 58.345 17.2579 57.3752 17.2579C56.3562 17.2579 55.4706 17.4764 54.7193 17.913C53.967 18.3495 53.385 18.9625 52.9731 19.7504C52.5606 20.5388 52.3546 21.4786 52.3546 22.5702C52.3546 23.6619 52.5731 24.6202 53.0096 25.4447C53.4462 26.2697 54.0647 26.9062 54.8651 27.3548C55.6656 27.8039 56.5873 28.0279 57.6303 28.0279C58.5275 28.0279 59.3585 27.8705 60.1228 27.5548C60.8867 27.24 61.5357 26.7789 62.0695 26.1719L64.6167 28.7552C63.7671 29.7501 62.7366 30.5014 61.5242 31.0111C60.3108 31.5204 59.0257 31.7755 57.6674 31.7755H57.6664Z" fill="#2E4C9A"/>
<path d="M76.2949 31.7755C74.7181 31.7755 73.2932 31.3751 72.0196 30.5746C70.746 29.7742 69.7391 28.6891 68.9998 27.3183C68.2595 25.9479 67.8901 24.4137 67.8901 22.7156C67.8901 21.0175 68.2595 19.4472 68.9998 18.0764C69.7396 16.7061 70.746 15.615 72.0196 14.802C73.2932 13.9895 74.7176 13.5831 76.2949 13.5831C77.6287 13.5831 78.811 13.8683 79.8425 14.4381C80.873 15.0085 81.692 15.7904 82.2985 16.7848C82.9044 17.7797 83.2082 18.9074 83.2082 20.1685V25.1896C83.2082 26.4512 82.9109 27.5789 82.3165 28.5733C81.7221 29.5682 80.9031 30.3506 79.8606 30.92C78.8175 31.4898 77.6287 31.775 76.2949 31.775V31.7755ZM76.95 27.9914C77.9444 27.9914 78.8115 27.7673 79.5513 27.3183C80.2911 26.8697 80.867 26.2447 81.2795 25.4442C81.6915 24.6438 81.898 23.7221 81.898 22.679C81.898 21.636 81.6915 20.7143 81.2795 19.9139C80.867 19.1134 80.2906 18.4894 79.5513 18.0398C78.811 17.5913 77.9439 17.3667 76.95 17.3667C75.9561 17.3667 75.1246 17.5913 74.3848 18.0398C73.6445 18.4889 73.0626 19.1134 72.6386 19.9139C72.2141 20.7143 72.0021 21.6365 72.0021 22.679C72.0021 23.7216 72.2141 24.6438 72.6386 25.4442C73.0626 26.2447 73.645 26.8697 74.3848 27.3183C75.1246 27.7673 75.9797 27.9914 76.95 27.9914ZM85.646 31.4116H81.6439V26.7178L82.335 22.461L81.6439 18.2403V5.21484H85.646V31.4116Z" fill="#2E4C9A"/>
<path d="M97.1794 31.0477C95.6267 31.0477 94.2258 30.6658 92.9768 29.9014C91.7273 29.1371 90.7449 28.0886 90.0297 26.7543C89.3139 25.4206 88.9561 23.929 88.9561 22.279C88.9561 20.629 89.3134 19.15 90.0297 17.8403C90.7449 16.5306 91.7273 15.4936 92.9768 14.7293C94.2258 13.9654 95.6267 13.583 97.1794 13.583C98.5618 13.583 99.7747 13.8622 100.818 14.42C101.86 14.9784 102.673 15.7482 103.256 16.7306C103.838 17.713 104.129 18.8593 104.129 20.1689V24.4623C104.129 25.7484 103.832 26.8882 103.237 27.8826C102.642 28.8775 101.824 29.6533 100.781 30.2112C99.7381 30.7695 98.5372 31.0482 97.1789 31.0482L97.1794 31.0477ZM97.3614 39.0526C95.5179 39.0526 93.905 38.7188 92.5222 38.0521C91.1393 37.3845 90.0236 36.4448 89.1746 35.2323L91.7944 32.6125C92.4976 33.4856 93.298 34.1407 94.1957 34.5772C95.0929 35.0138 96.1725 35.2323 97.434 35.2323C99.0109 35.2323 100.26 34.8258 101.182 34.0134C102.103 33.2004 102.564 32.0907 102.564 30.6843V26.391L103.256 22.5341L102.564 18.6412V13.9474H106.567V30.6843C106.567 32.3579 106.178 33.8189 105.402 35.0684C104.626 36.3174 103.547 37.2938 102.164 37.9975C100.781 38.7007 99.1803 39.0526 97.3614 39.0526ZM97.9799 27.2641C98.9497 27.2641 99.7993 27.0581 100.527 26.6456C101.254 26.2336 101.818 25.6577 102.219 24.9174C102.619 24.1776 102.819 23.311 102.819 22.3161C102.819 21.3212 102.619 20.4546 102.219 19.7148C101.819 18.975 101.254 18.3991 100.527 17.9866C99.7988 17.5747 98.9497 17.3682 97.9799 17.3682C97.01 17.3682 96.1545 17.5747 95.4147 17.9866C94.6744 18.3991 94.0985 18.975 93.6865 19.7148C93.274 20.4551 93.068 21.3222 93.068 22.3161C93.068 23.31 93.274 24.148 93.6865 24.8994C94.0985 25.6517 94.6744 26.2336 95.4147 26.6456C96.1545 27.0581 97.0095 27.2641 97.9799 27.2641Z" fill="#2E4C9A"/>
<path d="M118.319 31.7755C116.742 31.7755 115.317 31.375 114.043 30.5746C112.77 29.7741 111.763 28.689 111.023 27.3182C110.283 25.9479 109.914 24.4137 109.914 22.7156C109.914 21.0175 110.283 19.4472 111.023 18.0764C111.763 16.7061 112.77 15.6149 114.043 14.802C115.317 13.9895 116.741 13.583 118.319 13.583C119.652 13.583 120.835 13.8682 121.866 14.4381C122.897 15.0085 123.716 15.7903 124.322 16.7847C124.928 17.7796 125.232 18.9074 125.232 20.1684V25.1896C125.232 26.4511 124.935 27.5788 124.34 28.5732C123.746 29.5681 122.927 30.3505 121.884 30.9199C120.841 31.4898 119.652 31.775 118.319 31.775V31.7755ZM118.974 27.9913C120.453 27.9913 121.648 27.4946 122.557 26.4997C123.467 25.5053 123.922 24.2317 123.922 22.6795C123.922 21.637 123.715 20.7147 123.303 19.9143C122.89 19.1139 122.314 18.4899 121.575 18.0403C120.835 17.5917 119.967 17.3672 118.974 17.3672C117.98 17.3672 117.148 17.5917 116.408 18.0403C115.668 18.4894 115.086 19.1139 114.662 19.9143C114.238 20.7147 114.026 21.637 114.026 22.6795C114.026 23.722 114.238 24.6442 114.662 25.4447C115.086 26.2451 115.669 26.8701 116.408 27.3187C117.148 27.7678 118.003 27.9918 118.974 27.9918V27.9913ZM123.667 31.4116V26.7177L124.358 22.461L123.667 18.2403V13.9469H127.669V31.4116H123.667Z" fill="#2E4C9A"/>
<path d="M132.108 31.4116V13.9469H136.11V31.4116H132.108ZM136.11 21.6971L134.727 21.0059C134.727 18.7991 135.218 17.0098 136.201 15.639C137.183 14.2687 138.669 13.583 140.658 13.583C141.531 13.583 142.319 13.7409 143.023 14.0562C143.726 14.3719 144.381 14.8811 144.988 15.5843L142.368 18.2769C142.053 17.9375 141.7 17.6949 141.313 17.5491C140.925 17.4037 140.476 17.3306 139.967 17.3306C138.851 17.3306 137.929 17.6824 137.202 18.3856C136.474 19.0893 136.11 20.193 136.11 21.6966V21.6971Z" fill="#2E4C9A"/>
<path d="M14.3592 23.2899C13.0265 23.2899 11.774 22.7712 10.8317 21.8289L8.87199 19.8691C6.92679 17.9239 6.92679 14.7588 8.87199 12.8136L10.8317 10.8539C11.774 9.91158 13.027 9.39282 14.3592 9.39282C15.6915 9.39282 16.9445 9.91158 17.8868 10.8539L25.205 18.172C24.8626 18.1134 24.5128 18.0833 24.1579 18.0833C22.529 18.0833 20.9978 18.7174 19.8465 19.8691L17.8868 21.8289C16.9445 22.7712 15.6915 23.2899 14.3592 23.2899Z" fill="#518DE0"/>
<path d="M33.9577 23.2899C32.6249 23.2899 31.3724 22.7712 30.4301 21.8289L24.9429 16.3411L30.4301 10.8534C31.3724 9.91109 32.6254 9.39233 33.9577 9.39233C35.2899 9.39233 36.5434 9.91109 37.4857 10.8534L39.4454 12.8131C40.3877 13.7554 40.9065 15.0084 40.9065 16.3406C40.9065 17.6728 40.3872 18.9259 39.4454 19.8681L37.4857 21.8279C36.5434 22.7702 35.2904 23.2889 33.9577 23.2889V23.2899Z" fill="#2E4C9A"/>
<path d="M24.1584 34.8107C23.9364 34.8107 23.7273 34.7239 23.5705 34.5671L18.6706 29.6672C17.7283 28.7249 17.2096 27.4719 17.2096 26.1397C17.2096 24.8075 17.7289 23.5545 18.6706 22.6122L20.6304 20.6524C21.5726 19.7102 22.8257 19.1914 24.1579 19.1914C25.4901 19.1914 26.7431 19.7102 27.6854 20.6524L29.6451 22.6122C30.7969 23.764 32.3281 24.398 33.9566 24.398C34.3109 24.398 34.6608 24.3679 35.0036 24.3093L24.7458 34.5676C24.5889 34.7244 24.3799 34.8112 24.1579 34.8112L24.1584 34.8107Z" fill="#A0C9F0"/>
</svg>
