<svg width="200" height="59" viewBox="0 0 200 59" fill="none" xmlns="http://www.w3.org/2000/svg">
<path d="M76.8885 42.0963C74.5602 42.0963 72.4658 41.5711 70.606 40.5199C68.7455 39.4693 67.2746 38.0212 66.1913 36.178C65.1073 34.3349 64.566 32.2652 64.566 29.9684C64.566 27.6715 65.0993 25.6105 66.1672 23.7828C67.2345 21.9557 68.6813 20.5082 70.5091 19.4409C72.3361 18.3737 74.3657 17.8397 76.5978 17.8397C78.8298 17.8397 80.6803 18.3416 82.3463 19.3434C84.0117 20.3464 85.3215 21.7204 86.2758 23.4667C87.2295 25.2129 87.7073 27.2023 87.7073 29.4337C87.7073 29.822 87.6832 30.2183 87.6345 30.6226C87.5857 31.0276 87.5135 31.4713 87.4159 31.9565H68.3017V27.5906H84.6506L82.6618 29.3368C82.5963 27.9141 82.3223 26.7172 81.8371 25.7468C81.3519 24.7765 80.6643 24.0327 79.7755 23.5154C78.8853 22.9982 77.794 22.7396 76.5009 22.7396C75.1423 22.7396 73.9614 23.0309 72.9597 23.613C71.9566 24.1951 71.1807 25.0124 70.6314 26.0629C70.0807 27.1141 69.8067 28.3672 69.8067 29.8227C69.8067 31.2782 70.0981 32.556 70.6801 33.6553C71.2622 34.7553 72.0869 35.604 73.1541 36.2021C74.2214 36.8009 75.4503 37.0996 76.841 37.0996C78.0373 37.0996 79.1453 36.8898 80.1644 36.4687C81.1835 36.0491 82.0483 35.4342 82.76 34.625L86.1562 38.0693C85.0235 39.3958 83.6495 40.3976 82.0329 41.0772C80.415 41.7562 78.7015 42.0963 76.8905 42.0963H76.8885Z" fill="white"/>
<path d="M101.727 42.0964C99.6241 42.0964 97.7242 41.5624 96.0261 40.4952C94.328 39.4279 92.9854 37.9811 91.9997 36.1534C91.0127 34.3263 90.5201 32.2807 90.5201 30.0165C90.5201 27.7524 91.0127 25.6587 91.9997 23.8309C92.9861 22.0038 94.3287 20.549 96.0261 19.465C97.7242 18.3817 99.6235 17.8398 101.727 17.8398C103.505 17.8398 105.081 18.22 106.457 18.9798C107.831 19.7404 108.923 20.7829 109.731 22.1087C110.539 23.4353 110.944 24.9389 110.944 26.6203V33.3152C110.944 34.9972 110.548 36.5009 109.755 37.8267C108.963 39.1533 107.871 40.1965 106.481 40.9556C105.09 41.7155 103.505 42.0957 101.727 42.0957V42.0964ZM102.6 37.0509C103.926 37.0509 105.082 36.7521 106.068 36.1534C107.055 35.5552 107.823 34.7219 108.373 33.6546C108.922 32.5874 109.197 31.3584 109.197 29.9677C109.197 28.577 108.922 27.3481 108.373 26.2808C107.822 25.2136 107.054 24.3816 106.068 23.7821C105.081 23.184 103.925 22.8846 102.6 22.8846C101.275 22.8846 100.166 23.184 99.1797 23.7821C98.1927 24.3809 97.4168 25.2136 96.8514 26.2808C96.2854 27.3481 96.0027 28.5777 96.0027 29.9677C96.0027 31.3578 96.2854 32.5874 96.8514 33.6546C97.4168 34.7219 98.1933 35.5552 99.1797 36.1534C100.166 36.7521 101.306 37.0509 102.6 37.0509ZM114.195 41.6112H108.858V35.3528L109.78 29.677L108.858 24.0494V6.68213H114.195V41.6112Z" fill="white"/>
<path d="M129.572 41.126C127.502 41.126 125.634 40.6168 123.969 39.5976C122.303 38.5785 120.993 37.1805 120.039 35.4015C119.085 33.6232 118.608 31.6344 118.608 29.4344C118.608 27.2344 119.084 25.2623 120.039 23.5161C120.993 21.7699 122.303 20.3872 123.969 19.3681C125.634 18.3496 127.502 17.8397 129.572 17.8397C131.416 17.8397 133.033 18.212 134.424 18.9558C135.814 19.7002 136.898 20.7267 137.674 22.0365C138.451 23.3464 138.838 24.8747 138.838 26.6209V32.3454C138.838 34.0603 138.442 35.5799 137.649 36.9058C136.856 38.2323 135.765 39.2668 134.375 40.0106C132.984 40.7551 131.383 41.1267 129.572 41.1267L129.572 41.126ZM129.815 51.7991C127.356 51.7991 125.207 51.354 123.363 50.4652C121.519 49.5751 120.031 48.3221 118.899 46.7055L122.392 43.2124C123.33 44.3765 124.397 45.25 125.594 45.832C126.79 46.4141 128.23 46.7055 129.912 46.7055C132.014 46.7055 133.68 46.1635 134.909 45.0802C136.138 43.9963 136.752 42.5167 136.752 40.6415V34.917L137.674 29.7746L136.752 24.584V18.3256H142.089V40.6415C142.089 42.8729 141.571 44.8209 140.536 46.487C139.501 48.1523 138.062 49.4541 136.219 50.3924C134.375 51.33 132.24 51.7991 129.815 51.7991ZM130.64 36.0811C131.933 36.0811 133.066 35.8065 134.035 35.2565C135.006 34.7072 135.757 33.9393 136.291 32.9522C136.825 31.9659 137.092 30.8104 137.092 29.4839C137.092 28.1573 136.825 27.0019 136.291 26.0155C135.758 25.0291 135.006 24.2612 134.035 23.7112C133.065 23.1619 131.933 22.8866 130.64 22.8866C129.347 22.8866 128.206 23.1619 127.219 23.7112C126.232 24.2612 125.465 25.0291 124.915 26.0155C124.365 27.0025 124.091 28.1587 124.091 29.4839C124.091 30.8091 124.365 31.9264 124.915 32.9282C125.465 33.9313 126.232 34.7072 127.219 35.2565C128.206 35.8065 129.346 36.0811 130.64 36.0811Z" fill="white"/>
<path d="M157.758 42.0963C155.656 42.0963 153.756 41.5624 152.057 40.4951C150.359 39.4279 149.017 37.9811 148.031 36.1533C147.044 34.3262 146.552 32.2806 146.552 30.0165C146.552 27.7523 147.044 25.6586 148.031 23.8309C149.017 22.0038 150.359 20.5489 152.057 19.465C153.756 18.3817 155.655 17.8397 157.758 17.8397C159.536 17.8397 161.113 18.22 162.488 18.9798C163.862 19.7403 164.954 20.7828 165.763 22.1087C166.571 23.4352 166.976 24.9389 166.976 26.6203V33.3151C166.976 34.9972 166.579 36.5008 165.787 37.8267C164.993 39.1532 163.902 40.1964 162.512 40.9556C161.121 41.7154 159.536 42.0957 157.758 42.0957V42.0963ZM158.631 37.0508C160.603 37.0508 162.197 36.3885 163.41 35.062C164.623 33.7361 165.229 32.038 165.229 29.9684C165.229 28.5783 164.953 27.3487 164.404 26.2815C163.854 25.2142 163.086 24.3822 162.1 23.7828C161.113 23.1846 159.957 22.8852 158.631 22.8852C157.306 22.8852 156.197 23.1846 155.211 23.7828C154.224 24.3815 153.448 25.2142 152.883 26.2815C152.317 27.3487 152.033 28.5783 152.033 29.9684C152.033 31.3584 152.316 32.588 152.883 33.6553C153.448 34.7225 154.225 35.5559 155.211 36.154C156.197 36.7528 157.338 37.0515 158.631 37.0515V37.0508ZM164.889 41.6112V35.3527L165.811 29.677L164.889 24.0494V18.3249H170.225V41.6112H164.889Z" fill="white"/>
<path d="M176.144 41.6112V18.3249H181.48V41.6112H176.144ZM181.48 28.6585L179.636 27.737C179.636 24.7945 180.291 22.4088 181.601 20.581C182.911 18.7539 184.891 17.8397 187.544 17.8397C188.708 17.8397 189.759 18.0502 190.698 18.4706C191.635 18.8916 192.509 19.5706 193.317 20.5082L189.824 24.0982C189.404 23.6458 188.934 23.3223 188.417 23.1278C187.899 22.934 187.301 22.8365 186.622 22.8365C185.134 22.8365 183.906 23.3056 182.935 24.2432C181.965 25.1815 181.48 26.653 181.48 28.6579V28.6585Z" fill="white"/>
<path d="M19.1456 12.7871C20.7795 12.7871 22.3159 13.4233 23.4714 14.5788L32.1978 23.3052C29.8882 23.3086 27.7176 24.2094 26.0844 25.8433L23.4714 28.4563C22.3159 29.6118 20.7795 30.248 19.1456 30.248C17.5116 30.248 15.9753 29.6118 14.8198 28.4563L12.2068 25.8433C9.82172 23.4583 9.82172 19.5775 12.2068 17.1924L14.8198 14.5795C15.9753 13.424 17.5116 12.7878 19.1456 12.7878M19.1456 12.2532C17.3686 12.2532 15.6986 12.9448 14.4422 14.2012L11.8292 16.8142C9.23563 19.4078 9.23563 23.628 11.8292 26.2216L14.4422 28.8346C15.6986 30.0909 17.3693 30.7826 19.1456 30.7826C20.9219 30.7826 22.5926 30.0909 23.8489 28.8346L26.4619 26.2216C27.9976 24.6859 30.0392 23.8405 32.2105 23.8405C32.683 23.8405 33.1494 23.8806 33.6065 23.9588L23.8489 14.2012C22.5926 12.9448 20.9219 12.2532 19.1456 12.2532Z" fill="white"/>
<path d="M45.2767 30.7824C43.4997 30.7824 41.8297 30.0908 40.5733 28.8344L33.257 21.5174L40.5733 14.2004C41.8297 12.944 43.5004 12.2523 45.2767 12.2523C47.053 12.2523 48.7243 12.944 49.9807 14.2004L52.5937 16.8133C53.8501 18.0697 54.5417 19.7404 54.5417 21.5167C54.5417 23.293 53.8494 24.9637 52.5937 26.2201L49.9807 28.8331C48.7243 30.0894 47.0536 30.7811 45.2767 30.7811V30.7824Z" fill="white"/>
<path d="M32.2111 46.1435C31.9151 46.1435 31.6364 46.0279 31.4272 45.8187L24.8941 39.2856C23.6377 38.0293 22.946 36.3586 22.946 34.5823C22.946 32.806 23.6384 31.1353 24.8941 29.8789L27.5071 27.2659C28.7634 26.0095 30.4341 25.3179 32.2104 25.3179C33.9867 25.3179 35.6574 26.0095 36.9138 27.2659L39.5268 29.8789C41.0625 31.4146 43.1041 32.26 45.2753 32.26C45.7478 32.26 46.2143 32.2199 46.6714 32.1417L32.9943 45.8194C32.7852 46.0286 32.5065 46.1442 32.2104 46.1442L32.2111 46.1435Z" fill="white"/>
</svg>
