<svg width="24" height="24" viewBox="0 0 24 24" fill="none" xmlns="http://www.w3.org/2000/svg">
<path d="M5.25 0C5.66421 0 6 0.335786 6 0.75V1.5H18V0.75C18 0.335786 18.3358 0 18.75 0C19.1642 0 19.5 0.335786 19.5 0.75V1.5H21C22.6569 1.5 24 2.84315 24 4.5V21C24 22.6569 22.6569 24 21 24H3C1.34315 24 0 22.6569 0 21V4.5C0 2.84315 1.34315 1.5 3 1.5H4.5V0.75C4.5 0.335786 4.83579 0 5.25 0ZM20.1818 4.5H3.81818C3.36631 4.5 3 4.83579 3 5.25V6.75C3 7.16421 3.36631 7.5 3.81818 7.5H20.1818C20.6337 7.5 21 7.16421 21 6.75V5.25C21 4.83579 20.6337 4.5 20.1818 4.5ZM12.75 10.5C12.3358 10.5 12 10.8358 12 11.25V12.75C12 13.1642 12.3358 13.5 12.75 13.5H14.25C14.6642 13.5 15 13.1642 15 12.75V11.25C15 10.8358 14.6642 10.5 14.25 10.5H12.75ZM17.25 10.5C16.8358 10.5 16.5 10.8358 16.5 11.25V12.75C16.5 13.1642 16.8358 13.5 17.25 13.5H18.75C19.1642 13.5 19.5 13.1642 19.5 12.75V11.25C19.5 10.8358 19.1642 10.5 18.75 10.5H17.25ZM4.5 15.75V17.25C4.5 17.6642 4.83579 18 5.25 18H6.75C7.16421 18 7.5 17.6642 7.5 17.25V15.75C7.5 15.3358 7.16421 15 6.75 15H5.25C4.83579 15 4.5 15.3358 4.5 15.75ZM9.75 15C9.33579 15 9 15.3358 9 15.75V17.25C9 17.6642 9.33579 18 9.75 18H11.25C11.6642 18 12 17.6642 12 17.25V15.75C12 15.3358 11.6642 15 11.25 15H9.75Z" fill="#2E4C9A"/>
</svg>
