<svg width="16" height="17" viewBox="0 0 16 17" fill="none" xmlns="http://www.w3.org/2000/svg">
<path d="M8 0.5C12.4183 0.5 16 4.08172 16 8.5C16 12.9183 12.4183 16.5 8 16.5C3.58172 16.5 0 12.9183 0 8.5C0 4.08172 3.58172 0.5 8 0.5ZM4.5 8C4.22386 8 4 8.22386 4 8.5C4 8.77614 4.22386 9 4.5 9H10.2929L8.14645 11.1464C7.95118 11.3417 7.95118 11.6583 8.14645 11.8536C8.34171 12.0488 8.65829 12.0488 8.85355 11.8536L11.8536 8.85355C12.0488 8.65829 12.0488 8.34171 11.8536 8.14645L8.85355 5.14645C8.65829 4.95118 8.34171 4.95118 8.14645 5.14645C7.95118 5.34171 7.95118 5.65829 8.14645 5.85355L10.2929 8H4.5Z" fill="#DA1616"/>
</svg>
