<svg width="48" height="48" viewBox="0 0 48 48" fill="none" xmlns="http://www.w3.org/2000/svg">
<rect width="48" height="48" rx="24" fill="#DFECFA"/>
<path d="M27.8462 17.6154C27.8462 20.1644 25.7798 22.2308 23.2308 22.2308C20.6818 22.2308 18.6154 20.1644 18.6154 17.6154C18.6154 15.0664 20.6818 13 23.2308 13C25.7798 13 27.8462 15.0664 27.8462 17.6154Z" fill="#335FC2"/>
<path d="M14 29.9231C14 31.4615 15.5385 31.4615 15.5385 31.4615H23.2308V29.9231C23.2308 29.8193 23.2359 29.7168 23.2459 29.6157C23.2359 29.463 23.2308 29.309 23.2308 29.1538C23.2308 27.0713 24.1503 25.2035 25.6055 23.9344C24.8878 23.828 24.0984 23.7692 23.2308 23.7692C15.5385 23.7692 14 28.3846 14 29.9231Z" fill="#335FC2"/>
<path d="M24.7692 29.9231C24.7692 29.0734 25.458 28.3846 26.3077 28.3846V26.8462C26.3077 25.1468 27.6853 23.7692 29.3846 23.7692C31.084 23.7692 32.4615 25.1468 32.4615 26.8462V28.3846C33.3112 28.3846 34 29.0734 34 29.9231V33C34 33.8497 33.3112 34.5385 32.4615 34.5385H26.3077C25.458 34.5385 24.7692 33.8497 24.7692 33V29.9231ZM29.3846 25.3077C28.5349 25.3077 27.8462 25.9965 27.8462 26.8462V28.3846H30.9231V26.8462C30.9231 25.9965 30.2343 25.3077 29.3846 25.3077Z" fill="#335FC2"/>
</svg>
