<svg width="300" height="179" viewBox="0 0 300 179" fill="none" xmlns="http://www.w3.org/2000/svg">
<g clip-path="url(#clip0_1138_1703)">
<path d="M297.375 179C299.097 169.918 300 160.543 300 150.973C300 68.1235 232.849 0.972656 150 0.972656C67.1509 0.972656 0 68.1357 0 150.973C0 160.555 0.90332 169.918 2.62451 179H297.375Z" fill="#5CB030"/>
<path d="M126.379 88.2529C126.404 92.3423 123.108 95.687 119.019 95.7114C114.929 95.7359 111.584 92.44 111.56 88.3506C111.536 84.2612 114.832 80.9165 118.921 80.8921C123.01 80.8677 126.355 84.1636 126.379 88.2529Z" fill="black"/>
<path d="M183.447 87.8745C183.472 91.9639 180.176 95.3086 176.086 95.333C171.997 95.3574 168.652 92.0615 168.628 87.9722C168.604 83.8828 171.899 80.5381 175.989 80.5137C180.078 80.4893 183.423 83.7852 183.447 87.8745Z" fill="black"/>
<path d="M186.902 119.405C168.811 119.405 154.102 104.696 154.102 86.605C154.102 68.5142 168.823 53.8047 186.902 53.8047C204.98 53.8047 219.702 68.5142 219.702 86.605C219.702 104.696 204.993 119.405 186.902 119.405ZM111.182 120.504C93.0908 120.504 78.3813 105.782 78.3813 87.7036C78.3813 69.625 93.103 54.9033 111.182 54.9033C129.26 54.9033 143.982 69.6128 143.982 87.7036C143.982 105.794 129.26 120.504 111.182 120.504ZM236.707 53.8779L234.766 52.3887L219.226 72.5913C213.794 60.1157 201.355 51.3633 186.902 51.3633C169.482 51.3633 154.98 64.0708 152.161 80.709L145.85 81.417C142.871 64.9741 128.467 52.4619 111.182 52.4619C93.8965 52.4619 79.2847 65.145 76.4526 81.7588L40.0879 58.6875L38.7817 60.7505L76.0986 84.4321C76.001 85.5064 75.9399 86.605 75.9399 87.7036C75.9399 107.137 91.748 122.945 111.182 122.945C130.615 122.945 146.423 107.137 146.423 87.7036C146.423 86.3975 146.35 85.1035 146.204 83.834L151.831 83.1992C151.721 84.3223 151.66 85.4575 151.66 86.605C151.66 106.039 167.468 121.847 186.902 121.847C206.335 121.847 222.144 106.039 222.144 86.605C222.144 82.6377 221.472 78.8169 220.251 75.2524L236.694 53.8779H236.707Z" fill="white"/>
<path d="M264.514 179H267.017C267.09 178.463 267.175 177.95 267.236 177.413C269.824 155.428 267.114 136.007 267.09 135.812L264.697 136.153C264.758 136.544 267.468 156.563 264.514 179Z" fill="black"/>
<path d="M37.085 179H39.5874C36.6699 156.649 39.3799 136.739 39.4287 136.361L37.0361 136.019C37.0117 136.214 34.3018 155.636 36.8897 177.621C36.9507 178.097 37.0239 178.536 37.085 179.012V179Z" fill="black"/>
<path d="M143.628 114.571C147.278 118.551 151.672 118.819 156.445 117.135" stroke="#1D1D1B" stroke-width="2.86" stroke-linecap="round" stroke-linejoin="round"/>
</g>
<defs>
<clipPath id="clip0_1138_1703">
<rect width="300" height="178.027" fill="white" transform="translate(0 0.972656)"/>
</clipPath>
</defs>
</svg>
