<svg width="24" height="24" viewBox="0 0 24 24" fill="none" xmlns="http://www.w3.org/2000/svg">
<path d="M0 2.57143C0 1.15127 1.15127 0 2.57143 0L7.71429 0C9.13445 0 10.2857 1.15127 10.2857 2.57143V7.71429C10.2857 9.13445 9.13445 10.2857 7.71429 10.2857H2.57143C1.15127 10.2857 0 9.13445 0 7.71429L0 2.57143ZM13.7143 2.57143C13.7143 1.15127 14.8656 0 16.2857 0L21.4286 0C22.8487 0 24 1.15127 24 2.57143V7.71429C24 9.13445 22.8487 10.2857 21.4286 10.2857H16.2857C14.8656 10.2857 13.7143 9.13445 13.7143 7.71429V2.57143ZM0 16.2857C0 14.8656 1.15127 13.7143 2.57143 13.7143H7.71429C9.13445 13.7143 10.2857 14.8656 10.2857 16.2857V21.4286C10.2857 22.8487 9.13445 24 7.71429 24H2.57143C1.15127 24 0 22.8487 0 21.4286L0 16.2857ZM13.7143 16.2857C13.7143 14.8656 14.8656 13.7143 16.2857 13.7143H21.4286C22.8487 13.7143 24 14.8656 24 16.2857V21.4286C24 22.8487 22.8487 24 21.4286 24H16.2857C14.8656 24 13.7143 22.8487 13.7143 21.4286V16.2857Z" fill="#2E4C9A"/>
</svg>
