<svg width="27" height="20" viewBox="0 0 27 20" fill="none" xmlns="http://www.w3.org/2000/svg">
<g clip-path="url(#clip0_2243_1183)">
<path d="M5.97675 0.575793C6.8784 0.575793 7.72575 0.927768 8.36306 1.56617L13.1409 6.35224C11.9141 6.46497 10.7762 6.99785 9.89417 7.88139L8.3624 9.41579C7.72509 10.0542 6.87709 10.4062 5.97609 10.4062C5.07509 10.4062 4.22709 10.0542 3.58979 9.41579L2.05802 7.88139C0.742181 6.56329 0.742181 4.41867 2.05802 3.09992L3.58979 1.56552C4.22709 0.927112 5.07509 0.575138 5.97609 0.575138M5.97609 0.0507812C4.93441 0.0507812 3.95555 0.457158 3.21944 1.19453L1.68767 2.72893C0.167687 4.25153 0.167687 6.72912 1.68767 8.25172L3.21944 9.78612C3.95555 10.5235 4.93507 10.9299 5.97609 10.9299C7.01712 10.9299 7.99664 10.5235 8.73275 9.78612L10.2645 8.25172C11.1642 7.35048 12.361 6.85365 13.6336 6.85365C13.9104 6.85365 14.1839 6.87725 14.4515 6.92313L8.73275 1.19453C7.99664 0.457158 7.01712 0.0507812 5.97609 0.0507812Z" fill="#61688B"/>
<path d="M21.2911 10.9297C20.2501 10.9297 19.2706 10.5233 18.5345 9.78595L14.2467 5.49082L18.5345 1.19502C19.2706 0.457646 20.2501 0.0512695 21.2911 0.0512695C22.3322 0.0512695 23.3117 0.457646 24.0478 1.19502L25.5789 2.72942C26.315 3.4668 26.7207 4.448 26.7207 5.49082C26.7207 6.53363 26.315 7.51483 25.5789 8.25221L24.0478 9.78661C23.3117 10.524 22.3322 10.9304 21.2911 10.9304V10.9297Z" fill="#61688B"/>
<path d="M13.6343 19.9489C13.4609 19.9489 13.2973 19.8813 13.1749 19.7581L9.3465 15.9231C8.61039 15.1857 8.20471 14.2045 8.20471 13.1617C8.20471 12.1189 8.61039 11.1377 9.3465 10.4003L10.8783 8.86592C11.6144 8.12854 12.5939 7.72217 13.6349 7.72217C14.6759 7.72217 15.6555 8.12854 16.3916 8.86592L17.9227 10.4003C18.8224 11.3016 20.0191 11.7984 21.2918 11.7984C21.5686 11.7984 21.8421 11.7748 22.1097 11.7289L14.0936 19.7588C13.9706 19.8813 13.8077 19.9495 13.6343 19.9495V19.9489Z" fill="#61688B"/>
</g>
<defs>
<clipPath id="clip0_2243_1183">
<rect width="26.2698" height="20" fill="white" transform="translate(0.5)"/>
</clipPath>
</defs>
</svg>
