<svg width="18" height="14" viewBox="0 0 18 14" fill="none" xmlns="http://www.w3.org/2000/svg">
<path fill-rule="evenodd" clip-rule="evenodd" d="M2.25 0C1.00736 0 0 1.00736 0 2.25V11.25C0 12.4926 1.00736 13.5 2.25 13.5H15.75C16.9926 13.5 18 12.4926 18 11.25V2.25C18 1.00736 16.9926 0 15.75 0H2.25ZM9 2.8125C9 2.50184 8.74816 2.25 8.4375 2.25C8.12684 2.25 7.875 2.50184 7.875 2.8125V10.6875C7.875 10.9982 8.12684 11.25 8.4375 11.25C8.74816 11.25 9 10.9982 9 10.6875V2.8125ZM12.9375 3.80031C14.6043 2.20208 18.3319 5.36579 12.9375 9C7.54311 5.36579 11.2707 2.20208 12.9375 3.80031ZM2.25 3.9375C2.25 3.62684 2.50184 3.375 2.8125 3.375H6.1875C6.49816 3.375 6.75 3.62684 6.75 3.9375C6.75 4.24816 6.49816 4.5 6.1875 4.5H2.8125C2.50184 4.5 2.25 4.24816 2.25 3.9375ZM2.25 6.1875C2.25 5.87684 2.50184 5.625 2.8125 5.625H6.1875C6.49816 5.625 6.75 5.87684 6.75 6.1875C6.75 6.49816 6.49816 6.75 6.1875 6.75H2.8125C2.50184 6.75 2.25 6.49816 2.25 6.1875ZM2.25 8.4375C2.25 8.12684 2.50184 7.875 2.8125 7.875H6.1875C6.49816 7.875 6.75 8.12684 6.75 8.4375C6.75 8.74816 6.49816 9 6.1875 9H2.8125C2.50184 9 2.25 8.74816 2.25 8.4375Z" fill="#335FC2"/>
</svg>
