<svg width="16" height="17" viewBox="0 0 16 17" fill="none" xmlns="http://www.w3.org/2000/svg">
<path fill-rule="evenodd" clip-rule="evenodd" d="M2 2.5C0.895431 2.5 0 3.39543 0 4.5V12.5C0 13.6046 0.895431 14.5 2 14.5H14C15.1046 14.5 16 13.6046 16 12.5V4.5C16 3.39543 15.1046 2.5 14 2.5H2ZM8 5C8 4.72386 7.77614 4.5 7.5 4.5C7.22386 4.5 7 4.72386 7 5V12C7 12.2761 7.22386 12.5 7.5 12.5C7.77614 12.5 8 12.2761 8 12V5ZM11.5 5.87805C12.9816 4.45741 16.295 7.26959 11.5 10.5C6.70499 7.26959 10.0184 4.45741 11.5 5.87805ZM2 6C2 5.72386 2.22386 5.5 2.5 5.5H5.5C5.77614 5.5 6 5.72386 6 6C6 6.27614 5.77614 6.5 5.5 6.5H2.5C2.22386 6.5 2 6.27614 2 6ZM2 8C2 7.72386 2.22386 7.5 2.5 7.5H5.5C5.77614 7.5 6 7.72386 6 8C6 8.27614 5.77614 8.5 5.5 8.5H2.5C2.22386 8.5 2 8.27614 2 8ZM2 10C2 9.72386 2.22386 9.5 2.5 9.5H5.5C5.77614 9.5 6 9.72386 6 10C6 10.2761 5.77614 10.5 5.5 10.5H2.5C2.22386 10.5 2 10.2761 2 10Z" fill="#262626"/>
</svg>
