<svg width="16" height="17" viewBox="0 0 16 17" fill="none" xmlns="http://www.w3.org/2000/svg">
<path d="M16 8.5C16 12.366 12.4183 15.5 8 15.5C7.18324 15.5 6.39508 15.3929 5.65284 15.1939C5.06898 15.4897 3.72774 16.0584 1.47172 16.4277C1.27271 16.4603 1.12037 16.2521 1.19898 16.0664C1.55308 15.2299 1.87251 14.1162 1.96979 13.1001C0.743061 11.8699 0 10.2609 0 8.5C0 4.63401 3.58172 1.5 8 1.5C12.4183 1.5 16 4.63401 16 8.5ZM5 8.5C5 7.94772 4.55228 7.5 4 7.5C3.44772 7.5 3 7.94772 3 8.5C3 9.05228 3.44772 9.5 4 9.5C4.55228 9.5 5 9.05228 5 8.5ZM9 8.5C9 7.94772 8.55229 7.5 8 7.5C7.44772 7.5 7 7.94772 7 8.5C7 9.05228 7.44772 9.5 8 9.5C8.55229 9.5 9 9.05228 9 8.5ZM12 9.5C12.5523 9.5 13 9.05228 13 8.5C13 7.94772 12.5523 7.5 12 7.5C11.4477 7.5 11 7.94772 11 8.5C11 9.05228 11.4477 9.5 12 9.5Z" fill="#262626"/>
</svg>
