<svg width="24" height="24" viewBox="0 0 24 24" fill="none" xmlns="http://www.w3.org/2000/svg">
<path d="M18 0H6C2.68687 0 0 2.68687 0 6V18C0 21.3131 2.68687 24 6 24H18C21.3131 24 24 21.3131 24 18V6C24 2.68687 21.3131 0 18 0ZM18.1294 15.36C17.9719 15.5175 17.7619 15.6056 17.5369 15.6056C17.3119 15.6056 17.1038 15.5194 16.9444 15.36L11.9981 10.4137L7.05188 15.36C6.89438 15.5175 6.68437 15.6056 6.46125 15.6056C6.23812 15.6056 6.02812 15.5194 5.86875 15.36C5.5425 15.0337 5.5425 14.5031 5.86875 14.1769L11.4075 8.63812C11.565 8.48063 11.775 8.3925 11.9981 8.3925C12.2213 8.3925 12.4313 8.47875 12.5906 8.63812L18.1294 14.1769C18.4556 14.5031 18.4556 15.0337 18.1294 15.36Z" fill="#2E4C9A"/>
</svg>
