<svg width="16" height="22" viewBox="0 0 16 22" fill="none" xmlns="http://www.w3.org/2000/svg">
<path d="M8.8763 8.32942C9.02271 7.89019 9.64399 7.89019 9.7904 8.32942L10.651 10.9113C11.0347 12.0622 11.9378 12.9653 13.0886 13.3489L15.6706 14.2096C16.1098 14.356 16.1098 14.9773 15.6706 15.1237L13.0886 15.9843C11.9378 16.368 11.0347 17.2711 10.651 18.422L9.7904 21.0039C9.64399 21.4431 9.02271 21.4431 8.8763 21.0039L8.01564 18.4219C7.63201 17.2711 6.72891 16.368 5.57803 15.9843L2.99609 15.1237C2.55686 14.9773 2.55686 14.356 2.99609 14.2096L5.57804 13.3489C6.72891 12.9653 7.63201 12.0622 8.01564 10.9114L8.8763 8.32942Z" fill="#335FC2"/>
<path d="M3.72579 1.53099C3.81364 1.26745 4.1864 1.26745 4.27425 1.53099L4.79063 3.08013C5.0208 3.77067 5.56266 4.31253 6.25319 4.54271L7.80235 5.05909C8.06589 5.14694 8.06589 5.51971 7.80235 5.60756L6.2532 6.12394C5.56266 6.35412 5.0208 6.89598 4.79063 7.58652L4.27425 9.13567C4.1864 9.39921 3.81363 9.39921 3.72579 9.13568L3.20939 7.5865C2.97921 6.89598 2.43735 6.35412 1.74682 6.12395L0.197655 5.60756C-0.0658849 5.51971 -0.065885 5.14694 0.197655 5.05909L1.74683 4.5427C2.43735 4.31253 2.97921 3.77067 3.20939 3.08015L3.72579 1.53099Z" fill="#335FC2"/>
<path d="M13.1505 0.131769C13.2091 -0.0439239 13.4576 -0.0439225 13.5162 0.131771L13.8604 1.16453C14.0139 1.62489 14.3751 1.98613 14.8355 2.13958L15.8682 2.48384C16.0439 2.5424 16.0439 2.79092 15.8682 2.84948L14.8355 3.19374C14.3751 3.34719 14.0139 3.70843 13.8604 4.16879L13.5162 5.20156C13.4576 5.37725 13.2091 5.37725 13.1505 5.20156L12.8063 4.16878C12.6528 3.70843 12.2916 3.34719 11.8312 3.19374L10.7984 2.84948C10.6227 2.79092 10.6227 2.5424 10.7984 2.48384L11.8312 2.13958C12.2916 1.98613 12.6528 1.62489 12.8063 1.16454L13.1505 0.131769Z" fill="#335FC2"/>
</svg>
