<svg width="14" height="15" viewBox="0 0 14 15" fill="none" xmlns="http://www.w3.org/2000/svg">
<path d="M7.00003 0.598633C7.47341 0.598633 7.85717 0.982389 7.85717 1.45578V6.59863H13C13.4734 6.59863 13.8572 6.98239 13.8572 7.45578C13.8572 7.92916 13.4734 8.31292 13 8.31292H7.85717V13.4558C7.85717 13.9292 7.47341 14.3129 7.00003 14.3129C6.52664 14.3129 6.14288 13.9292 6.14288 13.4558V8.31292H1.00003C0.526639 8.31292 0.142883 7.92916 0.142883 7.45578C0.142883 6.98239 0.526639 6.59863 1.00003 6.59863H6.14288V1.45578C6.14288 0.982389 6.52664 0.598633 7.00003 0.598633Z" fill="#335FC2"/>
</svg>
