<svg width="16" height="17" viewBox="0 0 16 17" fill="none" xmlns="http://www.w3.org/2000/svg">
<path d="M7 14.5C7 14.5 6 14.5 6 13.5C6 12.5 7 9.5 11 9.5C15 9.5 16 12.5 16 13.5C16 14.5 15 14.5 15 14.5H7Z" fill="#262626"/>
<path d="M11 8.5C12.6569 8.5 14 7.15685 14 5.5C14 3.84315 12.6569 2.5 11 2.5C9.34315 2.5 8 3.84315 8 5.5C8 7.15685 9.34315 8.5 11 8.5Z" fill="#262626"/>
<path d="M5.21636 14.5C5.07556 14.2159 5 13.8791 5 13.5C5 12.1445 5.67905 10.7506 6.93593 9.77997C6.3861 9.60409 5.7451 9.5 5 9.5C1 9.5 0 12.5 0 13.5C0 14.5 1 14.5 1 14.5H5.21636Z" fill="#262626"/>
<path d="M4.5 8.5C5.88071 8.5 7 7.38071 7 6C7 4.61929 5.88071 3.5 4.5 3.5C3.11929 3.5 2 4.61929 2 6C2 7.38071 3.11929 8.5 4.5 8.5Z" fill="#262626"/>
</svg>
