<svg width="20" height="20" viewBox="0 0 20 20" fill="none" xmlns="http://www.w3.org/2000/svg">
<path d="M1.84314 12.0835C3.37795 14.3846 5.97321 16.9227 10 19.5835C14.0268 16.9227 16.622 14.3846 18.1569 12.0835H15C14.7444 12.0835 14.5146 11.9279 14.4197 11.6906L12.5987 7.1381L10.601 14.1302C10.5275 14.3872 10.2988 14.569 10.0319 14.5827C9.76501 14.5963 9.51896 14.4388 9.4197 14.1906L7.36097 9.04378L5.52003 11.8052C5.40412 11.9791 5.20897 12.0835 5 12.0835H1.84314Z" fill="#2E4C9A"/>
<path d="M1.09892 10.8335C-3.03296 2.93396 5.51268 -1.66586 9.7804 2.26235C9.85493 2.33096 9.92816 2.40216 10 2.476C10.0718 2.40217 10.1451 2.33096 10.2196 2.26236C14.4873 -1.66587 23.033 2.93395 18.9011 10.8335H15.4231L13.0803 4.97638C12.981 4.72823 12.735 4.57066 12.4681 4.58431C12.2012 4.59796 11.9725 4.77982 11.899 5.0368L9.9013 12.0289L8.0803 7.47638C7.9941 7.26088 7.79558 7.11089 7.56473 7.08686C7.33387 7.06282 7.10871 7.16869 6.97997 7.36181L4.66551 10.8335H1.09892Z" fill="#2E4C9A"/>
</svg>
