<svg xmlns="http://www.w3.org/2000/svg" width="24" height="24" fill="none" viewBox="0 0 24 24">
  <path fill="#61688B" d="M5.25 0A.75.75 0 0 1 6 .75v.75h12V.75a.75.75 0 0 1 1.5 0v.75H21a3 3 0 0 1 3 3V21a3 3 0 0 1-3 3H3a3 3 0 0 1-3-3V4.5a3 3 0 0 1 3-3h1.5V.75A.75.75 0 0 1 5.25 0Zm14.932 4.5H3.818c-.452 0-.818.336-.818.75v1.5c0 .414.366.75.818.75h16.364c.452 0 .818-.336.818-.75v-1.5c0-.414-.366-.75-.818-.75Zm-7.432 6a.75.75 0 0 0-.75.75v1.5c0 .414.336.75.75.75h1.5a.75.75 0 0 0 .75-.75v-1.5a.75.75 0 0 0-.75-.75h-1.5Zm4.5 0a.75.75 0 0 0-.75.75v1.5c0 .414.336.75.75.75h1.5a.75.75 0 0 0 .75-.75v-1.5a.75.75 0 0 0-.75-.75h-1.5ZM4.5 15.75v1.5c0 .414.336.75.75.75h1.5a.75.75 0 0 0 .75-.75v-1.5a.75.75 0 0 0-.75-.75h-1.5a.75.75 0 0 0-.75.75ZM9.75 15a.75.75 0 0 0-.75.75v1.5c0 .414.336.75.75.75h1.5a.75.75 0 0 0 .75-.75v-1.5a.75.75 0 0 0-.75-.75h-1.5Z"/>
</svg>
