<svg xmlns="http://www.w3.org/2000/svg" width="24" height="24" fill="none" viewBox="0 0 24 24">
  <path fill="#61688B" d="M5.25 0A.75.75 0 0 1 6 .75v.75h12V.75a.75.75 0 0 1 1.5 0v.75H21a3 3 0 0 1 3 3V21a3 3 0 0 1-3 3H3a3 3 0 0 1-3-3V4.5a3 3 0 0 1 3-3h1.5V.75A.75.75 0 0 1 5.25 0Zm14.932 4.5H3.818c-.452 0-.818.336-.818.75v1.5c0 .414.366.75.818.75h16.364c.452 0 .818-.336.818-.75v-1.5c0-.414-.366-.75-.818-.75Zm-3.902 8.78a.75.75 0 1 0-1.06-1.06l-3.97 3.97-1.72-1.72a.75.75 0 0 0-1.06 1.06l2.25 2.25a.75.75 0 0 0 1.06 0l4.5-4.5Z"/>
</svg>
