<svg xmlns="http://www.w3.org/2000/svg" width="24" height="24" fill="none" viewBox="0 0 24 24">
  <path fill="#61688B" d="M15 .75a.75.75 0 0 0-.75-.75h-4.5A.75.75 0 0 0 9 .75a.75.75 0 0 1-.75.75.75.75 0 0 0-.75.75V3c0 .414.336.75.75.75h7.5A.75.75 0 0 0 16.5 3v-.75a.75.75 0 0 0-.75-.75.75.75 0 0 1-.75-.75Z"/>
  <path fill="#61688B" d="M6.128 1.5H5.25A2.25 2.25 0 0 0 3 3.75v18A2.25 2.25 0 0 0 5.25 24h13.5A2.25 2.25 0 0 0 21 21.75v-18a2.25 2.25 0 0 0-2.25-2.25h-.878c.083.235.128.487.128.75V3a2.25 2.25 0 0 1-2.25 2.25h-7.5A2.25 2.25 0 0 1 6 3v-.75c0-.263.045-.515.128-.75Zm8.84 6.534L17.058 15h.192a.75.75 0 0 1 0 1.5h-.75a.75.75 0 0 1-.718-.534l-1.41-4.702-1.639 7.643a.75.75 0 0 1-1.451.058l-1.707-5.688-1.404 2.808a.75.75 0 0 1-.671.415h-.75a.75.75 0 0 1 0-1.5h.286l2.043-4.085a.75.75 0 0 1 1.39.12l1.41 4.701 1.638-7.643a.75.75 0 0 1 1.451-.059Z"/>
</svg>
