<svg width="40" height="40" viewBox="0 0 40 40" fill="none" xmlns="http://www.w3.org/2000/svg">
<rect width="40" height="40" rx="20" fill="#DFECFA"/>
<path d="M23.3122 16.8502C24.6505 15.5119 24.6505 13.3421 23.3122 12.0037C21.9738 10.6654 19.804 10.6654 18.4657 12.0037L12.0037 18.4657C10.6654 19.804 10.6654 21.9738 12.0037 23.3122C13.1748 24.4832 14.9824 24.6296 16.3126 23.7513C16.5026 23.6258 16.6829 23.4794 16.8502 23.3122L23.3122 16.8502ZM15.9851 16.0998L19.2734 12.8115C20.1656 11.9193 21.6122 11.9193 22.5044 12.8115C23.3966 13.7037 23.3966 15.1502 22.5044 16.0425L19.2161 19.3308L15.9851 16.0998Z" fill="#335FC2"/>
<path d="M24.4307 19.8614C26.9543 19.8614 29 21.9072 29 24.4307C29 26.9543 26.9543 29 24.4307 29C21.9072 29 19.8614 26.9543 19.8614 24.4307C19.8614 21.9072 21.9072 19.8614 24.4307 19.8614ZM23.8595 21.0511C22.2388 21.323 21.0037 22.7326 21.0037 24.4307C21.0037 26.1288 22.2388 27.5384 23.8595 27.8103V21.0511ZM25.0019 27.8103C26.6227 27.5384 27.8577 26.1288 27.8577 24.4307C27.8577 22.7326 26.6227 21.323 25.0019 21.0511V27.8103Z" fill="#335FC2"/>
</svg>
