<svg width="16" height="17" viewBox="0 0 16 17" fill="none" xmlns="http://www.w3.org/2000/svg">
<path d="M11.7422 10.7996C12.5329 9.72305 13 8.39395 13 6.95575C13 3.3659 10.0899 0.45575 6.5 0.45575C2.91015 0.45575 0 3.3659 0 6.95575C0 10.5456 2.91015 13.4557 6.5 13.4557C7.93858 13.4557 9.26801 12.9884 10.3448 12.1973L10.3439 12.1979C10.3734 12.2379 10.4062 12.2762 10.4424 12.3124L14.2929 16.1629C14.6834 16.5534 15.3166 16.5534 15.7071 16.1629C16.0976 15.7723 16.0976 15.1392 15.7071 14.7486L11.8566 10.8982C11.8204 10.862 11.7822 10.8291 11.7422 10.7996ZM12 6.95575C12 9.99332 9.53757 12.4557 6.5 12.4557C3.46243 12.4557 1 9.99332 1 6.95575C1 3.91818 3.46243 1.45575 6.5 1.45575C9.53757 1.45575 12 3.91818 12 6.95575Z" fill="black"/>
</svg>
