<svg width="12" height="13" viewBox="0 0 12 13" fill="none" xmlns="http://www.w3.org/2000/svg">
<path d="M8.20811 4.85589C9.10032 3.96368 9.10032 2.51712 8.20811 1.62491C7.3159 0.732697 5.86934 0.732697 4.97713 1.62491L0.669158 5.93288C-0.223053 6.82509 -0.223053 8.27165 0.669158 9.16386C1.44984 9.94454 2.65495 10.0421 3.54174 9.45661C3.66842 9.37297 3.78861 9.27538 3.90014 9.16386L8.20811 4.85589ZM3.32338 4.35565L5.51563 2.1634C6.11043 1.5686 7.07481 1.5686 7.66961 2.1634C8.26442 2.75821 8.26442 3.72258 7.66961 4.31739L5.47737 6.50963L3.32338 4.35565Z" fill="#335FC2"/>
<path d="M8.95381 6.86336C10.6362 6.86336 12 8.22719 12 9.90955C12 11.5919 10.6362 12.9557 8.95381 12.9557C7.27144 12.9557 5.90761 11.5919 5.90761 9.90955C5.90761 8.22719 7.27144 6.86336 8.95381 6.86336ZM8.57303 7.65649C7.4925 7.83777 6.66916 8.77751 6.66916 9.90955C6.66916 11.0416 7.4925 11.9813 8.57303 12.1626V7.65649ZM9.33458 12.1626C10.4151 11.9813 11.2385 11.0416 11.2385 9.90955C11.2385 8.77751 10.4151 7.83777 9.33458 7.65649V12.1626Z" fill="#335FC2"/>
</svg>
